# xmcd
#
# Track frame offsets:
#	150
#	17147
#	31597
#	44597
#	57612
#	73125
#	85925
#	102175
#	115972
#	133067
#
# Disc length: 1940
#
# Revision: 5
# Processed by: cddbd v1.5.1PL0 Copyright (c) Steve Scherf et al.
# Submitted via: ExactAudioCopy v0.90b3
# Normalized: r4:DSETVAR1
#
DISCID=8b07920a
DTITLE=Various Artist - Biggest Country Hits of the 90's II
DYEAR=1900
DGENRE=Country
TTITLE0=Steve Warner - When I could come home to you
TTITLE1=George Jones - Walls can fall
TTITLE2=Mark Collie - She's never Comin' Back
TTITLE3=Oak Ridge Boys - No matter how high
TTITLE4=Reba McEntire - Little Girl
TTITLE5=Conway Twitty - Who's gonna know
TTITLE6=Vince Gill - Never Alone
TTITLE7=Patty Loveless - The lonely side of love
TTITLE8=Kelly Wells - Baby take a piece of my heart
TTITLE9=Mark Chesnutt - Your love is a miracle
EXTD=
EXTT0=
EXTT1=
EXTT2=
EXTT3=
EXTT4=
EXTT5=
EXTT6=
EXTT7=
EXTT8=
EXTT9=
PLAYORDER=
